<?xml version="1.0" encoding="iso-8859-1"?>
<!-- Generator: Adobe Illustrator 17.1.0, SVG Export Plug-In . SVG Version: 6.00 Build 0)  -->
<!DOCTYPE svg PUBLIC "-//W3C//DTD SVG 1.1//EN" "http://www.w3.org/Graphics/SVG/1.1/DTD/svg11.dtd">
<svg xmlns="http://www.w3.org/2000/svg" xmlns:xlink="http://www.w3.org/1999/xlink" version="1.1" id="Capa_1" x="0px" y="0px" viewBox="0 0 216.8 216.8" style="enable-background:new 0 0 216.8 216.8;" xml:space="preserve" width="512px" height="512px">
<path d="M205.3,152.483h-14.45v-6.562c0-12.799-10.412-23.211-23.211-23.211h-54.239V96.145h35.027c11.028,0,20-8.972,20-20V45.912  c0-11.028-8.972-20-20-20H68.373c-11.028,0-20,8.972-20,20v30.232c0,11.028,8.972,20,20,20h35.026v26.566H49.161  c-12.799,0-23.211,10.412-23.211,23.211v6.562H11.5c-6.341,0-11.5,5.159-11.5,11.5v15.404c0,6.341,5.159,11.5,11.5,11.5h38.9  c6.341,0,11.5-5.159,11.5-11.5v-15.404c0-6.341-5.159-11.5-11.5-11.5H35.95v-6.562c0-7.284,5.927-13.211,13.211-13.211h54.238  v19.773h-14.45c-6.341,0-11.5,5.159-11.5,11.5v15.404c0,6.341,5.159,11.5,11.5,11.5h38.9c6.341,0,11.5-5.159,11.5-11.5v-15.404  c0-6.341-5.159-11.5-11.5-11.5h-14.45v-19.773h54.239c7.284,0,13.211,5.927,13.211,13.211v6.562h-14.45  c-6.341,0-11.5,5.159-11.5,11.5v15.404c0,6.341,5.159,11.5,11.5,11.5h38.9c6.341,0,11.5-5.159,11.5-11.5v-15.404  C216.8,157.643,211.641,152.483,205.3,152.483z" fill="#FFDA44"/>
<g>
</g>
<g>
</g>
<g>
</g>
<g>
</g>
<g>
</g>
<g>
</g>
<g>
</g>
<g>
</g>
<g>
</g>
<g>
</g>
<g>
</g>
<g>
</g>
<g>
</g>
<g>
</g>
<g>
</g>
</svg>
