<?xml version="1.0" encoding="iso-8859-1"?>
<!-- Generator: Adobe Illustrator 19.0.0, SVG Export Plug-In . SVG Version: 6.00 Build 0)  -->
<svg xmlns="http://www.w3.org/2000/svg" xmlns:xlink="http://www.w3.org/1999/xlink" version="1.1" id="Layer_1" x="0px" y="0px" viewBox="0 0 512 512" style="enable-background:new 0 0 512 512;" xml:space="preserve" width="512px" height="512px">
<g>
	<g>
		<path d="M471.579,6.737H40.421C18.098,6.737,0,24.835,0,47.158v53.895h512V47.158C512,24.835,493.902,6.737,471.579,6.737z     M67.368,80.842c-14.883,0-26.947-12.064-26.947-26.947c0-14.883,12.064-26.947,26.947-26.947    c14.883,0,26.947,12.064,26.947,26.947C94.316,68.778,82.251,80.842,67.368,80.842z M471.579,74.105H242.526V33.684h229.053    V74.105z" fill="#FFDA44"/>
	</g>
</g>
<g>
	<g>
		<path d="M0,141.474v323.368c0,22.323,18.098,40.421,40.421,40.421h40.421V141.474H0z" fill="#FFDA44"/>
	</g>
</g>
<g>
	<g>
		<path d="M121.263,141.474v363.789h350.316c22.323,0,40.421-18.098,40.421-40.421V141.474H121.263z M175.158,215.579h87.579V256    h-87.579V215.579z M262.737,417.684h-87.579v-40.421h87.579V417.684z M458.105,336.842H222.316v-40.421h235.789V336.842z" fill="#FFDA44"/>
	</g>
</g>
<g>
</g>
<g>
</g>
<g>
</g>
<g>
</g>
<g>
</g>
<g>
</g>
<g>
</g>
<g>
</g>
<g>
</g>
<g>
</g>
<g>
</g>
<g>
</g>
<g>
</g>
<g>
</g>
<g>
</g>
</svg>
