<?xml version="1.0" encoding="iso-8859-1"?>
<!-- Generator: Adobe Illustrator 17.1.0, SVG Export Plug-In . SVG Version: 6.00 Build 0)  -->
<!DOCTYPE svg PUBLIC "-//W3C//DTD SVG 1.1//EN" "http://www.w3.org/Graphics/SVG/1.1/DTD/svg11.dtd">
<svg xmlns="http://www.w3.org/2000/svg" xmlns:xlink="http://www.w3.org/1999/xlink" version="1.1" id="Capa_1" x="0px" y="0px" viewBox="0 0 198.04 198.04" style="enable-background:new 0 0 198.04 198.04;" xml:space="preserve" width="512px" height="512px">
<path d="M180.727,18.401c-0.318-2.109-1.94-3.785-4.038-4.171L99.926,0.083c-0.6-0.11-1.213-0.11-1.813,0L21.35,14.23  c-2.098,0.386-3.72,2.062-4.038,4.171c-0.328,2.169-7.841,53.635,7.258,98.157c15.28,45.056,69.501,79.289,71.802,80.724  c0.81,0.505,1.729,0.758,2.646,0.758s1.837-0.252,2.646-0.758c2.301-1.435,56.522-35.668,71.804-80.724  C188.569,72.036,181.055,20.57,180.727,18.401z M99.02,97.433H35.215c-7.508-33.414-2.279-67.413-2.279-67.413L99.02,18.08V97.433z   M159.035,110.881c-12.812,37.037-60.015,65.906-60.015,65.906V97.433h63.805C161.809,101.955,160.562,106.466,159.035,110.881z" fill="#FFDA44"/>
<g>
</g>
<g>
</g>
<g>
</g>
<g>
</g>
<g>
</g>
<g>
</g>
<g>
</g>
<g>
</g>
<g>
</g>
<g>
</g>
<g>
</g>
<g>
</g>
<g>
</g>
<g>
</g>
<g>
</g>
</svg>
